<?xml version="1.0" encoding="UTF-8"?>
<svg width="1200pt" height="1200pt" version="1.1" viewBox="0 0 1200 1200" xmlns="http://www.w3.org/2000/svg">
 <g>
  <path d="m600 500.4-24-25.199c-50.398-50.398-136.8-40.801-172.8 28.801-21.602 42-9.6016 92.398 24 126l159.6 159.6c7.1992 7.1992 20.398 7.1992 27.602 0l163.2-162c50.398-50.398 40.801-136.8-28.801-172.8-42-21.602-92.398-9.6016-126 24z"/>
  <path d="m363.6 166.8c-3.6016 20.398-8.3984 46.801-13.199 70.801h4.8008c15.602 0 30 4.8008 44.398 13.199 7.1992 4.8008 13.199 9.6016 19.199 15.602l235.2-2.4023c-2.3984-8.3984-3.6016-16.801-3.6016-25.199v-106.8c0-14.398 2.3984-27.602 6-39.602l-321.6-3.5977c21.598 18 33.598 46.801 28.801 78z"/>
  <path d="m741.6 291.6c36 32.398 121.2 84 121.2 84 12 8.3984 30 4.8008 38.398-8.3984 7.1992-12 3.6016-25.199-8.3984-37.199s-37.199-32.398-37.199-32.398c-10.801-10.801-3.6016-20.398 7.1992-20.398 20.398 1.1992 32.398 2.3984 55.199 4.8008 22.801 2.3984 127.2 21.602 127.2 21.602 13.199 2.3984 25.199-6 27.602-19.199 2.3984-13.199-6-25.199-19.199-27.602l-129.6-21.609c-3.6016-1.1992-6-3.6016-6-7.1992v-2.3984c0-4.8008 3.6016-8.3984 8.3984-8.3984l156 9.6016c13.199 1.1992 25.199-9.6016 25.199-22.801 0-13.199-9.6016-25.199-22.801-25.199l-163.2-10.801c-3.6016 0-7.1992-3.6016-7.1992-7.1992 0-3.6016 2.3984-7.1992 7.1992-8.3984l140.4-6c13.199-1.1992 24-12 22.801-25.199 0-13.199-12-24-25.199-22.801l-139.2 8.3945c-3.6016 0-7.1992-3.6016-7.1992-7.1992 0-3.6016 2.3984-7.1992 6-7.1992l108-13.199c13.199-1.1992 22.801-13.199 21.602-26.398-1.1992-13.199-13.199-22.801-26.398-21.602 0 0-148.8 19.199-204 26.398-54 7.1992-108 20.398-108 74.398v106.8c-1.2031 19.199 15.598 38.398 31.199 52.801z"/>
  <path d="m1033.2 363.6c-20.398-3.6016-46.801-8.3984-70.801-12 1.1992 18-4.8008 34.801-12 48-4.8008 7.1992-9.6016 13.199-16.801 19.199l2.4023 235.2c8.3984-2.3984 16.801-3.6016 25.199-3.6016h106.8c14.398 0 27.602 2.3984 39.602 6l2.3984-321.6c-15.602 18-38.398 28.801-63.602 28.801-3.5977 1.2031-8.3984 0.003906-13.199 0.003906z"/>
  <path d="m1143.6 817.2c-7.1992-54-20.398-108-74.398-108h-106.8c-20.398 0-38.398 16.801-52.801 32.398-32.398 36-84 121.2-84 121.2-8.3984 12-4.8008 30 8.3984 38.398 12 7.1992 25.199 3.6016 37.199-8.3984s32.398-37.199 32.398-37.199c10.801-10.801 20.398-3.6016 20.398 7.1992-1.1992 20.398-2.3984 32.398-4.8008 55.199-5.9961 21.605-25.195 126-25.195 126-2.3984 13.199 6 25.199 19.199 27.602 13.199 2.3984 25.199-6 27.602-19.199l24-128.4c0-3.6016 3.6016-6 7.1992-6h2.3984c4.8008 0 8.3984 3.6016 7.1992 8.3984l-9.6016 156c-1.1992 13.199 9.6016 25.199 22.801 25.199s25.199-9.6016 25.199-22.801l10.801-163.2c0-3.6016 3.6016-7.1992 7.1992-7.1992 3.6016 0 7.1992 3.6016 8.3984 7.1992l6 140.4c0 13.199 12 24 25.199 22.801s24-12 22.801-25.199l-6-140.4c0-3.6016 3.6016-7.1992 7.1992-7.1992 3.6016 0 7.1992 2.3984 7.1992 6l13.199 108c1.1992 13.199 13.199 22.801 26.398 21.602 13.199-1.1992 22.801-13.199 21.602-26.398 0.007812-0.003906-19.191-148.8-26.391-204z"/>
  <path d="m166.8 836.4c20.398 3.6016 46.801 8.3984 70.801 13.199-1.1992-18 4.8008-34.801 12-49.199 4.8008-7.1992 9.6016-13.199 16.801-19.199l-2.4023-235.2c-8.3984 2.3984-16.801 3.6016-25.199 3.6016h-106.8c-14.398 0-27.602-2.3984-39.602-6l-3.5977 321.6c15.602-18 38.398-30 63.602-30 3.5977 0 9.5977 1.1992 14.398 1.1992z"/>
  <path d="m238.8 490.8c20.398 0 38.398-16.801 52.801-32.398 32.398-36 84-121.2 84-121.2 8.3984-12 4.8008-30-8.3984-38.398-12-7.1992-25.199-3.6016-37.199 8.3984s-32.398 37.199-32.398 37.199c-10.801 10.801-20.398 3.6016-20.398-7.1992 1.1992-20.398 2.3984-32.398 4.8008-55.199 2.3984-22.801 21.602-127.2 21.602-127.2 2.3984-13.199-6-25.199-19.199-27.602-13.199-2.3984-25.199 6-27.602 19.199l-21.609 129.6c0 3.6016-3.6016 6-7.1992 6h-2.3984c-4.8008 0-8.3984-3.6016-7.1992-8.3984l9.6016-156c1.1992-13.199-9.6016-25.199-22.801-25.199s-25.199 9.6016-25.199 22.801l-10.801 163.2c0 3.6016-3.6016 7.1992-7.1992 7.1992-3.6016 0-7.1992-2.3984-8.3984-7.1992l-6-140.4c0-13.199-12-24-25.199-22.801-13.199 0-24 12-22.801 25.199l6 140.4c0 3.6016-3.6016 7.1992-7.1992 7.1992-3.6016 0-7.1992-2.3984-7.1992-7.1992l-13.199-108c-1.1992-13.199-13.199-22.801-26.398-21.602s-22.801 13.199-21.602 26.398c0 0 19.199 148.8 26.398 204 7.1992 54 20.398 108 74.398 108 41.996 1.2031 65.996 1.2031 108 1.2031z"/>
  <path d="m836.4 1033.2c3.6016-20.398 8.3984-46.801 13.199-70.801h-4.8008c-15.602 0-30-4.8008-44.398-13.199-7.1992-4.8008-13.199-9.6016-19.199-16.801l-235.2 3.6016c2.3984 8.3984 3.6016 16.801 3.6016 25.199v106.8c0 14.398-2.3984 27.602-6 39.602l321.6 3.6016c-6-4.8008-10.801-9.6016-14.398-15.602-13.203-18-18.004-39.602-14.406-62.402z"/>
  <path d="m458.4 908.4c-36-32.398-121.2-84-121.2-84-12-8.3984-30-4.8008-38.398 8.3984-7.1992 12-3.6016 25.199 8.3984 37.199s37.199 32.398 37.199 32.398c10.801 10.801 3.6016 20.398-7.1992 20.398-20.398-1.1992-32.398-2.3984-55.199-4.8008-21.602-4.793-126-23.992-126-23.992-13.199-2.3984-25.199 6-27.602 19.199-2.3984 13.199 6 25.199 19.199 27.602l128.4 24c3.6016 1.1992 6 3.6016 6 7.1992v2.3984c0 4.8008-3.6016 8.3984-8.3984 7.1992l-156-9.5977c-13.199-1.1992-25.199 9.6016-25.199 22.801s9.6016 25.199 22.801 25.199l163.2 10.801c3.6016 0 7.1992 3.6016 7.1992 7.1992 0 3.6016-2.3984 7.1992-7.1992 8.3984l-140.4 6c-13.199 0-24 12-22.801 25.199 0 13.199 12 24 25.199 22.801l140.4-6c3.6016 0 7.1992 3.6016 7.1992 7.1992 0 3.6016-2.3984 7.1992-6 7.1992l-108 13.199c-13.199 1.1992-22.801 13.199-21.602 26.398 1.1992 13.199 13.199 22.801 26.398 21.602 0 0 148.8-19.199 204-26.398 54-7.1992 108-20.398 108-74.398v-106.8c0.003906-20.398-16.797-39.598-32.398-54z"/>
 </g>
</svg>
