<?xml version="1.0" encoding="UTF-8"?>
<svg width="1200pt" height="1200pt" version="1.1" viewBox="0 0 1200 1200" xmlns="http://www.w3.org/2000/svg">
 <g>
  <path d="m1028.5 177.29c10.551 0 19.133-8.4883 19.133-18.918 0-10.727-8.4062-19.125-19.133-19.125-10.668 0-19.023 8.3984-19.023 19.125 0 10.43 8.5312 18.918 19.023 18.918z"/>
  <path d="m489.71 365.64c10.488 0 19.02-8.582 19.02-19.125 0-10.434-8.5312-18.918-19.02-18.918-10.551 0-19.133 8.4883-19.133 18.918 0 10.547 8.582 19.125 19.133 19.125z"/>
  <path d="m274.77 946.14c-0.51953 0-1.0391 0.027344-1.5625 0.078125-8.0703 0.95703-13.996 8.4258-13.094 16.637 0.88672 7.9414 8.4453 14.012 16.461 13.059 4.0156-0.48047 7.6016-2.5 10.105-5.6836 2.4219-3.0781 3.5-6.875 3.0391-10.676-0.84766-7.6836-7.2695-13.414-14.949-13.414z"/>
  <path d="m271.64 794.48c-0.36328-0.48828-0.72266-0.97266-1.082-1.4492-1.6641-2.2188-3.2891-4.332-4.8594-6.3125-1.1406-1.4375-2.25-2.8125-3.332-4.1172-1.082-1.3086-2.1367-2.5391-3.1562-3.6992-2.043-2.3164-3.9492-4.3398-5.7109-6.0195-8.6406-8.3125-16.531-12.344-24.141-12.344-5.9805 0-11.375 2.4688-16.387 5-3.207 1.5977-7.2383 3.5039-11.809 5.668-19.293 9.1367-59.441 28.152-64.742 39.328-4.3281 9.1914-0.35547 23.254 4.25 39.531 1.2578 4.4492 2.5586 9.0508 3.75 13.785 9.0898 36.348 9.2383 78.707 9.3789 119.68 0.15234 43.684 0.29688 84.945 10.828 116.01 1.6484 4.7969 2.9297 5.6172 2.9414 5.6211l0.011719-0.039063c2.5586 0 8.6172-3.5625 14.477-7.0039 11.801-6.8867 35.77-17.973 63.523-30.805 27.617-12.773 58.918-27.25 83.93-40.262 37.859-19.691 43.359-26.82 44.141-28.539 3.9297-8.8047 1.8438-22.391-6.4062-41.477-15.426-36.305-63.406-119.27-95.605-162.56zm27.137 185.25c-5.043 6.418-12.273 10.488-20.371 11.453-1.1758 0.14062-2.3711 0.21484-3.5547 0.21484-15.398 0-28.301-11.539-30.016-26.84-1.8242-16.578 10.148-31.652 26.688-33.613 1.1562-0.12109 2.2109-0.17187 3.25-0.17187 15.531 0 28.523 11.617 30.219 27.023 0.94922 7.8008-1.2578 15.617-6.2148 21.934z"/>
  <path d="m834.93 225.23c6.1797 0 11.211-5.0781 11.211-11.316 0-6.1367-5.1328-11.316-11.211-11.316-6.2344 0-11.305 5.0781-11.305 11.316-0.003906 6.3438 4.9648 11.316 11.305 11.316z"/>
  <path d="m1004 716.28c-6.3555 0-12.988 0.48828-19.703 1.4453-58.977 8.1523-157.02 49.98-203.32 86.559-2.2227 4.5625-5.293 8.6445-9.2461 12.203-13.309 11.988-35.211 16.52-61.035 16.52-42.801 0-96.375-12.438-139.5-23.938-3.3047-0.88281-6.0977-1.6289-8.2891-2.1914-4.1133-1.0508-6.5938-5.2422-5.5391-9.3555 1.0508-4.1133 5.2344-6.5938 9.3555-5.5391 2.2344 0.57031 5.0781 1.3281 8.4414 2.2266 101.54 27.086 164.21 30.738 186.28 10.855 2.707-2.4414 4.7578-5.2695 6.1602-8.5273 0.019531-0.050781 0.03125-0.10938 0.050781-0.16016 0.019531-0.042969 0.03125-0.085938 0.050781-0.125 0.40234-0.96484 0.75391-1.9609 1.0391-2.9961 0.023438-0.078125 0.050782-0.15625 0.066407-0.23828 1.2617-4.7031 1.3984-10.16 0.40625-16.445-9.4219-59.969-163.13-91.883-270.5-91.883-20.449 0-37.484 1.25-49.273 3.6133-38.176 7.5078-96.562 33.973-178.32 80.84 0.078125 0.089844 0.16797 0.19531 0.24609 0.28906 0.92188 1.0625 1.8594 2.1602 2.8203 3.3125 0.019531 0.023437 0.042969 0.050781 0.0625 0.074218 0.99609 1.1992 2.0117 2.4492 3.043 3.7422 0.058594 0.074218 0.11328 0.14453 0.17578 0.21875 1.0117 1.2695 2.043 2.5859 3.0859 3.9453 0.11328 0.14844 0.22266 0.28906 0.33594 0.4375 1.0352 1.3516 2.0898 2.7422 3.1523 4.168 0.10156 0.13672 0.20312 0.27344 0.30469 0.41016 3.3906 4.5547 6.9062 9.4883 10.516 14.707 0.0625 0.089844 0.12891 0.18359 0.19531 0.27734 1.1758 1.7031 2.3633 3.4414 3.5586 5.2031 0.074219 0.10938 0.14844 0.21875 0.22656 0.33203 3.7109 5.4844 7.4922 11.23 11.301 17.152 0.023438 0.039063 0.050782 0.078125 0.074219 0.11328 1.2578 1.9531 2.5156 3.9258 3.7734 5.9141 0.050781 0.074219 0.097656 0.15234 0.14844 0.23047 3.8477 6.082 7.707 12.305 11.527 18.586 0.003906 0.007813 0.007812 0.015625 0.011719 0.023438 1.25 2.0547 2.5 4.1211 3.7422 6.1836 0.054688 0.097656 0.11328 0.19141 0.17188 0.28906 1.2266 2.0469 2.4531 4.0938 3.668 6.1445 0.039062 0.0625 0.078125 0.12891 0.11328 0.19141 2.4883 4.1992 4.9492 8.3867 7.3594 12.551 0.003906 0.003906 0.003906 0.007812 0.007813 0.011719 1.1758 2.0352 2.3438 4.0586 3.4961 6.0742 0.074219 0.12891 0.14453 0.25 0.21484 0.37891 1.1289 1.9688 2.2422 3.9258 3.3438 5.8711 0.078125 0.14453 0.16016 0.28125 0.23828 0.42578 2.2773 4.0273 4.4961 7.9922 6.6406 11.879 0.003907 0.007812 0.007813 0.015625 0.011719 0.023437 1.0312 1.8672 2.043 3.7188 3.0391 5.543 0.10547 0.19531 0.21484 0.39062 0.32031 0.58984 0.96484 1.7734 1.9141 3.5234 2.8438 5.2539 0.097656 0.17969 0.19531 0.35938 0.28906 0.53516 0.94141 1.75 1.8594 3.4766 2.7617 5.1719 0.054687 0.10938 0.11328 0.21484 0.16797 0.32031 1.8242 3.4492 3.5625 6.7812 5.1992 9.9766 0.097656 0.19531 0.19922 0.39062 0.30078 0.58203 0.76562 1.4961 1.5078 2.9609 2.2266 4.3906 0.11328 0.22656 0.22656 0.44531 0.33594 0.67188 0.71875 1.4297 1.4141 2.832 2.0781 4.1914 0.070313 0.14453 0.13672 0.27734 0.20703 0.41797 1.375 2.8164 2.6445 5.4688 3.7891 7.9453 0.046875 0.10156 0.10156 0.21484 0.14844 0.32031 40.742-15.234 76.613-22.652 109.46-22.652 37.68 0 67.867 9.7109 97.059 19.098 30.941 9.9531 62.934 20.242 105.91 20.242 7.082 0 14.395-0.28516 21.738-0.83984 37.094-2.6992 122.21-39.969 202.41-88.621 84.133-51.035 139.52-100.96 137.84-124.24-1.875-25.559-27.582-30.922-48.812-30.922z"/>
  <path d="m270.98 707.45c1.2734 0 2.5664-0.32031 3.7578-0.98828 1.3555-0.76172 136.32-76.32 196.88-91.516 59.359-14.691 283.16 62.785 285.42 63.566 0.14844 0.054687 0.30859 0.066406 0.45312 0.10938 0.26172 0.074219 0.52344 0.14453 0.79297 0.1875 0.27734 0.050781 0.54688 0.066406 0.82812 0.082031 0.14844 0.011719 0.29688 0.050781 0.45312 0.050781 0.078125 0 0.14844-0.023437 0.22656-0.023437 0.28906-0.007813 0.57422-0.046875 0.85938-0.085937 0.22656-0.03125 0.44922-0.054688 0.66406-0.10938 0.25391-0.058593 0.49219-0.14844 0.73828-0.23047 0.23047-0.078125 0.45703-0.15234 0.67578-0.25 0.23047-0.10156 0.44141-0.23047 0.65625-0.35547 0.20703-0.12109 0.41797-0.23828 0.61719-0.375 0.21094-0.14844 0.39844-0.32031 0.59375-0.49219 0.17188-0.15234 0.35156-0.30078 0.51953-0.46484 0.17188-0.18359 0.32422-0.39062 0.48438-0.58984 0.14844-0.19531 0.30078-0.38281 0.4375-0.59375 0.125-0.19531 0.23047-0.40625 0.33594-0.61719 0.13281-0.25 0.25391-0.49609 0.35547-0.75781 0.027344-0.074219 0.070313-0.13672 0.097657-0.21484 0.054687-0.14844 0.066406-0.30469 0.10938-0.45312 0.074218-0.26172 0.14453-0.52344 0.1875-0.79297 0.050781-0.27344 0.066406-0.54297 0.082031-0.8125 0.007813-0.15625 0.050781-0.30859 0.050781-0.46484v-95.738c0.87109 0.61719 1.8711 1.0742 2.9609 1.2891 29.762 5.8984 58.109 8.8867 84.262 8.8867 66.375 0 118.68-18.688 155.46-55.539 51.453-51.449 67.547-134.31 46.551-239.63-0.60547-3.043-2.9844-5.4219-6.0273-6.0312-29.781-5.9609-58.176-8.9844-84.395-8.9844-66.145 0-118.41 18.645-155.35 55.434-19.727 19.766-34.23 44.168-43.461 72.672v-158.84c10.445-52.988 2.0898-94.887-24.199-121.18-18.992-19.09-45.832-28.766-79.762-28.766-13.18 0-27.465 1.5039-42.461 4.4727-3.0508 0.60156-5.4336 2.9844-6.043 6.0391-10.688 53.566-2.3281 95.84 24.156 122.23 18.938 18.938 45.715 28.539 79.586 28.543h0.003906c10.484 0 21.672-0.96484 33.344-2.8438v193.62c-6.2969-14.43-14.797-27.102-25.531-37.832-25.848-25.77-62.352-38.836-108.48-38.836-18.023 0-37.527 2.0586-57.961 6.1211-3.0508 0.60547-5.4336 2.9922-6.043 6.043-14.508 72.992-3.2266 130.52 32.617 166.35 25.727 25.801 62.125 38.883 108.19 38.887h0.007812c17.77 0 37.016-2.0195 57.203-5.9844v78.875c-45.695-15.422-227.19-74.539-283.98-60.473-62.57 15.695-195.09 89.875-200.69 93.023-3.6992 2.0781-5.0195 6.7656-2.9375 10.469 1.4023 2.4961 4.0117 3.9141 6.7031 3.9141zm505.57-154.35 102.29-106.7-8.375-102.64c-0.34766-4.2344 2.8008-7.9414 7.0352-8.2852 4.2266-0.34766 7.9414 2.8047 8.2852 7.0352l7.2695 89.062 58.914-61.457c2.9375-3.0664 7.8008-3.168 10.867-0.23047 3.0664 2.9375 3.168 7.8008 0.23047 10.867l-126.12 131.57 91.617-14.41c4.2031-0.66016 8.1328 2.207 8.7852 6.3984 0.66016 4.1953-2.2031 8.1289-6.3945 8.7891l-111.57 17.551-32.242 33.633c-2.9453-0.49609-5.8984-1.0117-8.8672-1.5742-0.62109-3.2266-1.1875-6.4258-1.7227-9.6055zm43.355 15.516c-1.5898-0.14844-3.1836-0.3125-4.7852-0.48047 1.6016 0.16797 3.1914 0.33203 4.7852 0.48047zm-8.8633-0.93359c-1.7148-0.19531-3.4297-0.40234-5.1602-0.625 1.7305 0.22266 3.4453 0.42578 5.1602 0.625zm-8.8828-1.125c-1.8516-0.25-3.707-0.50391-5.5742-0.78125 1.8672 0.27734 3.7227 0.53125 5.5742 0.78125zm-8.8047-1.2852c-2.0352-0.32031-4.0742-0.62891-6.125-0.97656 2.0508 0.34766 4.0859 0.66016 6.125 0.97656zm30.957 3.7305c1.4609 0.12109 2.9258 0.24219 4.3789 0.34766-1.4531-0.10547-2.918-0.22266-4.3789-0.34766zm9.1992 0.66016c1.2969 0.078126 2.5938 0.16016 3.8828 0.22656-1.2891-0.070313-2.5898-0.15234-3.8828-0.22656zm9.4219 0.4375c1.0195 0.035157 2.043 0.082032 3.0547 0.10547-1.0117-0.023437-2.0352-0.070312-3.0547-0.10547zm199.45-271.51c18.461 97.609 3.5156 173.86-43.332 220.7-33.793 33.859-82.438 51.031-144.58 51.031h-0.003906c62.145 0 110.79-17.172 144.58-51.031 46.848-46.848 61.789-123.09 43.328-220.7-26.945-5.1133-52.594-7.7031-76.32-7.7031h0.003906c23.734 0 49.383 2.5898 76.328 7.7031zm-229.18 52.336c-0.12109 0.14062-0.23047 0.28516-0.34375 0.42578 0.10938-0.14062 0.22266-0.28516 0.34375-0.42578zm-42.574 132.38c-0.007812 0.96875-0.027343 1.9297-0.027343 2.8984 0-0.97266 0.015625-1.9336 0.027343-2.8984zm38.707-127.62c-0.24219 0.3125-0.47266 0.62891-0.71094 0.94531 0.23828-0.31641 0.46875-0.63281 0.71094-0.94531zm-3.6797 4.9141c-0.30078 0.41797-0.58594 0.85156-0.88281 1.2734 0.29688-0.42578 0.58203-0.85547 0.88281-1.2734zm-3.5 5.0742c-0.32812 0.49219-0.63672 1-0.96094 1.5 0.32031-0.5 0.63281-1.0039 0.96094-1.5zm-3.3164 5.2344c-0.33984 0.55859-0.66016 1.125-0.99219 1.6875 0.33203-0.5625 0.65234-1.1289 0.99219-1.6875zm-3.1328 5.3906c-0.34375 0.61328-0.66406 1.2344-1 1.8477 0.33984-0.61328 0.66016-1.2344 1-1.8477zm-2.9531 5.5547c-0.33203 0.64844-0.64844 1.3086-0.96875 1.9648 0.32031-0.65234 0.63672-1.3164 0.96875-1.9648zm-2.7656 5.707c-0.32031 0.69141-0.62891 1.3906-0.9375 2.0898 0.30859-0.69922 0.61719-1.3984 0.9375-2.0898zm-2.582 5.8594c-0.30859 0.73047-0.60547 1.4688-0.90234 2.1992 0.29688-0.73047 0.59375-1.4688 0.90234-2.1992zm-2.4023 6.0156c-0.28906 0.76562-0.56641 1.5312-0.84766 2.3008 0.27734-0.76562 0.55859-1.5391 0.84766-2.3008zm-2.2188 6.168c-0.26953 0.79297-0.53125 1.5938-0.79297 2.3945 0.26172-0.80078 0.52344-1.6016 0.79297-2.3945zm-2.0312 6.3164c-0.25 0.82422-0.49219 1.6523-0.73437 2.4805 0.24219-0.82812 0.48437-1.6562 0.73437-2.4805zm-1.8516 6.4727c-0.23047 0.84766-0.44922 1.6992-0.66797 2.5508 0.22266-0.85156 0.44141-1.7031 0.66797-2.5508zm-1.6641 6.6211c-0.20313 0.87109-0.40625 1.7461-0.59766 2.6211 0.19531-0.875 0.39453-1.75 0.59766-2.6211zm-1.4766 6.7656c-0.17969 0.89453-0.35938 1.793-0.53125 2.6953 0.17188-0.90234 0.35156-1.8008 0.53125-2.6953zm-1.293 6.9062c-0.15625 0.92188-0.31641 1.8438-0.46484 2.7695 0.15234-0.92578 0.30859-1.8477 0.46484-2.7695zm-1.1094 7.0742c-0.13281 0.93359-0.26562 1.8672-0.38672 2.8047 0.12109-0.94141 0.25391-1.875 0.38672-2.8047zm-0.92578 7.2188c-0.10547 0.94531-0.21484 1.8906-0.3125 2.8398 0.10156-0.95312 0.20703-1.8984 0.3125-2.8398zm-0.73047 7.3477c-0.082031 0.96094-0.16797 1.9219-0.24219 2.8906 0.074218-0.96875 0.16016-1.9297 0.24219-2.8906zm-0.54688 7.5039c-0.058594 0.96875-0.125 1.9375-0.17188 2.9141 0.050781-0.97656 0.11328-1.9414 0.17188-2.9141zm-0.35938 7.6602c-0.03125 0.97656-0.070312 1.9414-0.097656 2.9219 0.027344-0.98047 0.066406-1.9453 0.097656-2.9219zm2.1172 51.688c-0.042969-0.39844-0.074219-0.78906-0.11719-1.1875 0.042969 0.39844 0.078125 0.78516 0.11719 1.1875zm-0.83594-8.4531c-0.0625-0.70703-0.10938-1.4062-0.16797-2.1094 0.058594 0.70312 0.10938 1.4023 0.16797 2.1094zm-0.64844-8.3242c-0.058594-0.84766-0.097656-1.6797-0.14844-2.5234 0.050782 0.84375 0.085938 1.6758 0.14844 2.5234zm-0.46484-8.1914c-0.042969-0.91797-0.0625-1.8242-0.10156-2.7344 0.035156 0.91016 0.058593 1.8164 0.10156 2.7344zm-0.27734-8.0703c-0.027344-0.94531-0.027344-1.8828-0.042968-2.8203 0.019531 0.9375 0.019531 1.8711 0.042968 2.8203zm-55.211-74.191c1.8281 1.8242 3.5781 3.7305 5.2656 5.6914-1.6875-1.9648-3.4414-3.8633-5.2695-5.6914-22.855-22.789-55.699-34.344-97.613-34.344h0.003907c41.914 0.003906 74.762 11.559 97.613 34.344zm14.492 18.266c-1.3242-2.1172-2.7109-4.1797-4.168-6.1797 1.457 2 2.8438 4.0625 4.168 6.1797zm-4.4336-6.5273c-1.4961-2.0352-3.0547-4.0117-4.6914-5.9219 1.6406 1.9062 3.1992 3.8867 4.6914 5.9219zm-30.867 140.57c2.957 0 5.9727-0.078126 9.0195-0.19531-3.0469 0.11719-6.0586 0.19531-9.0156 0.19531zm50.094-4.8945c-10.211 1.875-20.117 3.1992-29.676 4 6.7344-0.57031 13.641-1.3984 20.711-2.4922l-78.727-81.977-45.336 17.168c-0.89844 0.33984-1.8164 0.5-2.7227 0.5-3.1016 0-6.0273-1.8945-7.1914-4.9648-1.5039-3.9688 0.49609-8.4062 4.4727-9.9102l39.203-14.844-27.871-29.023c-2.9453-3.0625-2.8438-7.9297 0.21875-10.871s7.9258-2.8438 10.871 0.21875l73.637 76.676 3.5195-53.695c0.27734-4.2383 3.9375-7.4219 8.1758-7.168 4.2344 0.27734 7.4453 3.9375 7.168 8.1758l-4.4414 67.707 29.621 30.848c5.2656-34.055 4.2344-63.953-2.9492-88.879 7.8516 27.246 8.3672 60.441 1.3164 98.531zm-39.695 4.6445c3.0625-0.13672 6.1719-0.33203 9.3203-0.58984-3.1484 0.25781-6.2578 0.45312-9.3203 0.58984zm25.207-133.31c1.3047 2.1055 2.5391 4.2734 3.7148 6.4961-1.1758-2.2227-2.4102-4.3867-3.7148-6.4961zm4 7.0312c1.168 2.2383 2.2695 4.5312 3.3008 6.8789-1.0312-2.3516-2.1367-4.6406-3.3008-6.8789zm3.5234 7.3828c1.0391 2.3867 2.0117 4.832 2.918 7.332-0.90625-2.5039-1.8789-4.9414-2.918-7.332zm3.0508 7.7109c0.92188 2.5625 1.7695 5.1836 2.5469 7.8672-0.77344-2.6836-1.6289-5.3047-2.5469-7.8672zm-22.32-220.07h-0.003906c10.719 0 22.289-1.0859 34.457-3.2305 8.1641-45.664 1.0078-81.219-20.824-103.05-16.016-16.094-39.188-24.25-68.875-24.25h0.003906c29.691 0 52.859 8.1523 68.879 24.25 21.828 21.828 28.992 57.383 20.82 103.05-12.164 2.1445-23.734 3.2305-34.457 3.2305z"/>
 </g>
</svg>
