<?xml version="1.0" encoding="UTF-8"?>
<svg width="1200pt" height="1200pt" version="1.1" viewBox="0 0 1200 1200" xmlns="http://www.w3.org/2000/svg">
 <path d="m599.98 56.176c-128.66 0-233.35 101.09-233.35 226.61v224.34h-127.33c-0.59766-0.027344-1.1953-0.027344-1.793 0-4.6328 0.46484-8.9219 2.6328-12.043 6.082-3.1211 3.4531-4.8438 7.9414-4.8398 12.594v599.2c-0.019531 4.9727 1.9375 9.75 5.4375 13.277 3.5039 3.5312 8.2656 5.5273 13.238 5.5469h721.4c4.9727-0.019531 9.7344-2.0156 13.238-5.5469 3.5-3.5273 5.457-8.3047 5.4375-13.277v-599.2c-0.019531-4.9453-1.9922-9.6836-5.4922-13.184-3.4961-3.5-8.2344-5.4727-13.184-5.4922h-127.33v-224.34c0-125.52-104.72-226.61-233.39-226.61zm0 37.535c109.18 0 195.85 84.344 195.85 189.07l0.003906 224.34h-391.81v-224.34c0-104.73 86.781-189.07 195.96-189.07zm-341.86 450.91h683.75v561.7l-683.75 0.003907zm341.86 92.762c-57.426 0-104.62 46.422-104.62 103.53 0 32.336 15.148 61.273 38.707 80.309-55.434 24.789-94.227 79.699-94.227 143.77v29.742c0.011718 4.9805 2.0039 9.75 5.5312 13.262 3.5312 3.5078 8.3164 5.4727 13.293 5.4531h282.64c4.9805 0.019531 9.7617-1.9453 13.293-5.4531 3.5312-3.5117 5.5234-8.2812 5.5312-13.262v-29.738c0-64.074-38.754-118.98-94.191-143.77 23.559-19.035 38.707-47.977 38.707-80.309 0-57.105-47.238-103.53-104.66-103.53zm0 37.5c37.395 0 67.125 29.43 67.125 66.027 0 36.598-29.73 66.137-67.125 66.137s-67.125-29.539-67.125-66.137c0-36.598 29.73-66.027 67.125-66.027zm0 169.7c68.398 0 122.64 53.477 122.64 120.41v10.914h-245.25v-10.914c0-66.934 54.207-120.41 122.61-120.41z"/>
</svg>
