<?xml version="1.0" encoding="UTF-8"?>
<svg width="1200pt" height="1200pt" version="1.1" viewBox="0 0 1200 1200" xmlns="http://www.w3.org/2000/svg">
 <path d="m600 120c-91.199 0-165.6 74.398-165.6 165.6 0 91.199 74.402 165.6 165.6 165.6s165.6-74.398 165.6-165.6c0-91.199-73.203-165.6-165.6-165.6zm117.6 157.2c-9.6016 45.602-82.801 102-108 120-4.8008 3.6016-12 3.6016-16.801 0-25.199-18-98.398-73.199-108-120-4.8008-19.199-2.4023-37.199 7.1992-50.398s24-20.398 40.801-22.801c6 0 18-1.1992 31.199 4.8008 14.398 6 26.398 15.602 36 30 8.3984-13.199 21.602-24 36-30 13.199-4.8008 25.199-4.8008 31.199-4.8008 18 2.3984 31.199 9.6016 40.801 22.801s13.199 31.199 9.6016 50.398zm-213.6 571.2c-6-9.6016-18-12-27.602-6l-32.398 20.402c-50.398 31.199-81.602 88.801-81.602 151.2v46.801c0 10.801 8.3984 19.199 19.199 19.199 10.801 0 19.199-8.3984 19.199-19.199v-46.801c0-48 24-93.602 62.398-117.6l33.602-20.398c9.6016-6 13.203-18 7.2031-27.602zm253.2 14.402-33.602-20.398c-9.6016-6-21.602-3.6016-27.602 6-6 9.6016-2.3984 21.602 6 27.602l33.602 20.398c38.398 24 62.398 68.398 62.398 117.6v46.801c0 10.801 8.3984 19.199 19.199 19.199 10.801 0 19.199-8.3984 19.199-19.199v-46.801c1.207-62.402-29.996-120-79.195-151.2zm-157.2-336c-84 0-151.2 73.199-151.2 162s68.398 162 151.2 162c84 0 151.2-73.199 151.2-162 0-90-67.199-162-151.2-162zm0 284.4c-61.199 0-111.6-55.199-111.6-122.4s50.398-122.4 111.6-122.4c61.199 0 111.6 55.199 111.6 122.4 1.1992 67.199-49.203 122.4-111.6 122.4zm129.6 158.4c-10.801 0-19.199 8.3984-19.199 19.199v70.801c0 10.801 8.3984 19.199 19.199 19.199 10.801 0 19.199-8.3984 19.199-19.199v-70.801c0-9.6016-8.4023-19.199-19.199-19.199zm-258 0c-10.801 0-19.199 8.3984-19.199 19.199v70.801c0 10.801 8.3984 19.199 19.199 19.199 10.801 0 19.199-8.3984 19.199-19.199v-70.801c0-9.6016-8.4023-19.199-19.199-19.199zm492-258-20.398-13.199c-9.6016-6-21.602-3.6016-27.602 6-6 9.6016-2.3984 21.602 6 27.602l20.398 13.199c21.602 13.199 34.801 39.602 34.801 67.199v40.801c0 10.801 8.3984 19.199 19.199 19.199s19.199-8.3984 19.199-19.199v-40.801c2.4023-42.004-18-80.402-51.598-100.8zm-100.8-236.4c-56.398 0-100.8 48-100.8 108s45.602 108 100.8 108c56.398 0 102-48 102-108-1.1992-60-46.801-108-102-108zm0 176.4c-33.602 0-62.398-31.199-62.398-68.398 0-38.398 27.602-68.398 62.398-68.398 34.801 0 62.398 31.199 62.398 68.398 0 37.195-28.801 68.398-62.398 68.398zm61.199 130.8c-10.801 0-19.199 8.3984-19.199 19.199v51.602c0 10.801 8.3984 19.199 19.199 19.199s19.199-8.3984 19.199-19.199v-51.602c1.1992-10.797-8.3984-19.199-19.199-19.199zm-639.6-76.797c-6-9.6016-18-12-27.602-6l-20.398 13.199c-33.602 20.398-54 58.801-54 99.602v40.801c0 10.801 8.3984 19.199 19.199 19.199 10.801 0 19.199-8.3984 19.199-19.199v-40.801c0-27.602 13.199-52.801 36-67.199l20.398-13.199c9.6055-6.0039 12.004-18.004 7.2031-26.402zm52.801-230.4c-56.398 0-102 48-102 108s45.602 108 102 108c56.398 0 100.8-48 100.8-108 1.1992-60-44.398-108-100.8-108zm0 176.4c-34.801 0-62.398-31.199-62.398-68.398 0-38.398 27.602-68.398 62.398-68.398 33.602 0 62.398 31.199 62.398 68.398 0.003906 37.195-27.598 68.398-62.398 68.398zm-61.199 130.8c-10.801 0-19.199 8.3984-19.199 19.199v51.602c0 10.801 8.3984 19.199 19.199 19.199s19.199-8.3984 19.199-19.199v-51.602c0-10.797-8.3984-19.199-19.199-19.199z"/>
</svg>
