<?xml version="1.0" encoding="UTF-8"?>
<svg width="1200pt" height="1200pt" version="1.1" viewBox="0 0 1200 1200" xmlns="http://www.w3.org/2000/svg">
 <path d="m402.19 616.64c59.297 0 89.297 72.188 47.344 114.14-42.188 42.188-114.14 12.188-114.14-47.344-0.23438-36.797 29.766-66.797 66.797-66.797zm27.188 39.609c-24.141-24.141-65.625-7.0312-65.625 27.188s41.484 51.328 65.625 27.188c15-15 15-39.375 0-54.375zm-27.188-76.406c92.578 0 177.19 56.719 211.41 144.38 6.7969 17.344-19.688 27.656-26.484 10.312-3.9844-10.312-8.9062-20.156-14.297-29.297-90.469 102.89-250.78 102.89-341.25 0-5.625 9.375-10.547 19.219-14.531 29.297-6.7969 17.344-33.281 7.0312-26.484-10.312 31.641-80.859 107.11-136.88 194.3-143.67zm-111.56 62.812c-15.703 10.781-30.234 23.906-42.188 38.672 79.453 97.031 227.81 97.031 307.5 0-65.156-79.688-180-96.328-265.31-38.672zm125.62-216.33c136.17 7.5 243.52 120 243.52 257.34s-107.34 250.08-243.52 257.34v177.66h524.3v-118.59c0-7.9688 6.3281-14.297 14.297-14.297h118.59v-737.11h-657.19zm-28.359 514.45c-135.94-7.2656-243.52-120-243.52-257.34s107.58-249.84 243.52-257.11v-183.52l-261.33-150.94v865.55l261.33 150.7zm176.48-419.3c-89.531-89.531-234.84-89.531-324.38 0s-89.531 234.61 0 324.38c89.531 89.531 234.61 89.531 324.38 0 89.297-89.766 89.297-234.84 0-324.38zm-170.62 622.73-287.34-165.7c-4.9219-2.1094-8.2031-7.2656-8.2031-12.891v-898.36c0-10.781 11.719-17.812 21.094-12.188l286.41 165.23h681.8c7.9688 0 14.297 6.3281 14.297 14.297v765.47c0 3.75-1.4062 7.2656-4.2188 10.078l-132.66 132.66c-2.8125 2.8125-6.3281 4.2188-10.312 4.2188h-552.42c-3.0469 0-5.8594-1.1719-8.4375-2.8125zm400.31-577.27c-18.516 0-18.516-28.359 0-28.359h114.38c18.516 0 18.516 28.359 0 28.359zm73.594-115.55 39.609-39.609c13.359-13.359 33.281 6.7969 20.156 19.922l-39.609 39.609c7.0312 15.234 3.5156 33.047-8.2031 45-25.312 25.312-68.672 7.0312-68.672-28.359 0-29.297 30.469-48.516 56.719-36.562zm-8.2031 28.359c-11.016-11.016-27.656 5.8594-16.641 16.641 4.6875 4.6875 12.188 4.4531 16.641 0 4.6875-4.9219 4.4531-12.188 0-16.641zm-120.94 8.2031c0 18.75-28.359 18.75-28.359 0 0-77.812 63.047-141.09 141.09-141.09s141.09 63.047 141.09 141.09c0 18.75-28.359 18.75-28.359 0 0-62.109-50.391-112.73-112.73-112.73s-112.73 50.391-112.73 112.73zm245.86 218.91c18.75 0 18.75 28.359 0 28.359h-257.11c-18.75 0-18.75-28.359 0-28.359zm0-84.844c18.75 0 18.75 28.359 0 28.359h-257.11c-18.75 0-18.75-28.359 0-28.359zm0 254.53c18.75 0 18.75 28.594 0 28.594h-257.58c-18.75 0-18.75-28.594 0-28.594zm0-84.844c18.75 0 18.75 28.359 0 28.359h-257.58c-18.75 0-18.75-28.359 0-28.359zm68.906 222.42h-84.375v84.375z"/>
</svg>
